<svg xmlns="http://www.w3.org/2000/svg" viewBox="0 0 28.02 24.5"><defs><style>.cls-1{fill:#f5be19;}</style></defs><title>Ресурс 4</title><g id="Слой_2" data-name="Слой 2"><g id="Слой_1-2" data-name="Слой 1"><path class="cls-1" d="M25.28,1.7A7.49,7.49,0,0,1,28,7.27,7.29,7.29,0,0,1,25.82,13L15.27,24a1.72,1.72,0,0,1-2.52,0L2.2,13A7.29,7.29,0,0,1,0,7.27,7.46,7.46,0,0,1,2.75,1.7,6.73,6.73,0,0,1,7.91,0a7.7,7.7,0,0,1,5,2.38L14,3.5,15.1,2.41a7.7,7.7,0,0,1,5-2.38A6.77,6.77,0,0,1,25.28,1.7Z"/></g></g></svg>