<svg xmlns="http://www.w3.org/2000/svg" viewBox="0 0 31.5 24.52"><defs><style>.cls-1{fill:#f5be19;}</style></defs><title>корзина</title><g id="Слой_2" data-name="Слой 2"><g id="Слой_1-2" data-name="Слой 1"><path class="cls-1" d="M31.5,10.08V11a1.3,1.3,0,0,1-1.31,1.31h-.44l-1.42,10a3,3,0,0,1-.47,1.12,2.39,2.39,0,0,1-.93.82,2.6,2.6,0,0,1-1.23.3H5.8a2.64,2.64,0,0,1-2.63-2.24l-1.42-10H1.31A1.3,1.3,0,0,1,0,11v-.88A1.3,1.3,0,0,1,1.31,8.77H5l5.85-8A1.67,1.67,0,0,1,12,0a1.73,1.73,0,0,1,1.31.33A1.67,1.67,0,0,1,14,1.5a1.73,1.73,0,0,1-.33,1.31l-4.37,6H22.2l-4.37-6A1.73,1.73,0,0,1,17.5,1.5,1.67,1.67,0,0,1,18.21.35,1.73,1.73,0,0,1,19.52,0a1.67,1.67,0,0,1,1.15.71l5.85,8h3.67a1.3,1.3,0,0,1,1.31,1.31ZM10.94,19.71V13.58a1.32,1.32,0,0,0-2.63,0v6.13a1.32,1.32,0,0,0,2.63,0Zm6.12,0V13.58a1.32,1.32,0,0,0-2.24-.93,1.26,1.26,0,0,0-.38.93v6.13a1.26,1.26,0,0,0,.38.93,1.31,1.31,0,0,0,2.24-.93Zm6.13,0V13.58a1.32,1.32,0,0,0-2.63,0v6.13a1.32,1.32,0,0,0,2.63,0Z"/></g></g></svg>