<svg xmlns="http://www.w3.org/2000/svg" viewBox="0 0 24.5 28"><defs><style>.cls-1{fill:#f5be19;}</style></defs><title>личный кабинет</title><g id="Слой_2" data-name="Слой 2"><g id="Слой_1-2" data-name="Слой 1"><path class="cls-1" d="M17.17,15.75a7,7,0,0,1,5.17,2.16,7,7,0,0,1,2.16,5.17v2.3A2.63,2.63,0,0,1,21.88,28H2.62a2.53,2.53,0,0,1-1.85-.77A2.49,2.49,0,0,1,0,25.38v-2.3a7,7,0,0,1,2.16-5.17,7,7,0,0,1,5.17-2.16h.93a9.58,9.58,0,0,0,8,0Zm0-3.8A6.74,6.74,0,0,1,12.25,14,6.74,6.74,0,0,1,7.3,12,6.74,6.74,0,0,1,5.25,7,6.74,6.74,0,0,1,7.3,2.05a6.74,6.74,0,0,1,5-2A6.74,6.74,0,0,1,17.2,2.05a6.74,6.74,0,0,1,2.05,5A6.74,6.74,0,0,1,17.2,12Z"/></g></g></svg>